<svg width="800" height="800" viewBox="0 0 800 800" fill="none" xmlns="http://www.w3.org/2000/svg" xmlns:xlink="http://www.w3.org/1999/xlink">
<rect width="800" height="800" rx="64" fill="url(#paint0_linear_1416_464)"/>
<rect width="800" height="800" rx="64"/>
<g clip-path="url(#clip0_1416_464)">
<path d="M698.074 424.93C584.734 406.761 517.358 391.494 475.469 349.605C433.58 307.716 418.313 240.34 400.145 127C381.976 240.34 366.709 307.716 324.694 349.605C282.805 391.494 215.429 406.761 102 424.93C215.429 443.098 282.805 458.365 324.82 500.254C366.709 542.27 381.976 609.645 400.145 723.074C418.313 609.645 433.58 542.27 475.469 500.38C517.358 458.365 584.734 443.098 698.074 424.93ZM610.65 214.424C552.939 256.238 508.652 286.141 469.161 302.921C475.595 314.782 483.039 324.875 491.619 333.455C500.199 342.035 510.293 349.479 522.153 355.914C538.934 316.422 568.836 272.136 610.65 214.424ZM331.255 547.064C324.694 535.078 317.25 524.984 308.67 516.404C300.09 507.825 289.996 500.38 278.01 493.82C261.229 533.564 231.2 577.976 189.311 635.763C247.098 593.874 291.511 563.845 331.255 547.064Z" fill="white"/>
</g>
<defs>
<linearGradient id="paint0_linear_1416_464" x1="3.13099e-05" y1="784.794" x2="762.388" y2="-20.4069" gradientUnits="userSpaceOnUse">
<stop/>
<stop offset="1" stop-color="#4D6CE8"/>
</linearGradient>
<clipPath id="clip0_1416_464">
<rect width="646" height="646" fill="white" transform="translate(77 77)"/>
</clipPath>
</defs>
</svg>
